<svg width="31" height="31" viewBox="0 0 31 31" fill="none" xmlns="http://www.w3.org/2000/svg">
<g clip-path="url(#clip0_312_31)">
<path d="M27.3281 17.8926C27.3281 17.1062 27.968 16.4677 28.7563 16.4677C29.5445 16.4677 30.1844 17.1062 30.1844 17.8926V26.0748C30.1844 27.2359 29.71 28.2911 28.944 29.0553C28.1781 29.8195 27.1205 30.2929 25.9567 30.2929H4.2277C3.06391 30.2929 2.00637 29.8195 1.24039 29.0553C0.474412 28.2911 0 27.2359 0 26.0748V4.23749C0 3.07636 0.474412 2.02122 1.24039 1.25699C2.00637 0.492759 3.06391 0.019428 4.2277 0.019428H12.3767C13.1649 0.019428 13.8049 0.657931 13.8049 1.44435C13.8049 2.23077 13.1649 2.86927 12.3767 2.86927H4.2277C3.85212 2.86927 3.51114 3.02458 3.26158 3.27111C3.01202 3.5201 2.85882 3.86031 2.85882 4.23503V26.0723C2.85882 26.4471 3.01449 26.7873 3.26158 27.0363C3.51114 27.2852 3.85212 27.4381 4.2277 27.4381H25.9592C26.3348 27.4381 26.6758 27.2828 26.9253 27.0363C27.1749 26.7897 27.3281 26.4471 27.3281 26.0723V17.8926ZM27.7778 4.30406L13.3453 18.8836C12.7943 19.4432 11.8899 19.4506 11.329 18.9009C10.7682 18.3511 10.7607 17.4488 11.3118 16.8892L25.1883 2.86927H19.4113C18.6231 2.86927 17.9832 2.23077 17.9832 1.44435C17.9832 0.657931 18.6231 0.019428 19.4113 0.019428H25.9592C27.2243 0.019428 28.8551 -0.19505 29.8262 0.78366C30.4389 1.40244 30.303 6.33543 30.224 9.19268C30.2042 9.93225 30.1869 10.4968 30.1869 10.9011C30.1869 11.6875 29.5469 12.326 28.7587 12.326C27.9705 12.326 27.3306 11.6875 27.3306 10.9011C27.3306 10.8247 27.3503 10.0826 27.3775 9.11625C27.417 7.62723 27.6567 5.65502 27.7778 4.30406Z" fill="white"/>
</g>
<defs>
<clipPath id="clip0_312_31">
<rect width="30.2932" height="30.2932" fill="white"/>
</clipPath>
</defs>
</svg>
