<svg width="72" height="72" viewBox="0 0 72 72" fill="none" xmlns="http://www.w3.org/2000/svg">
<path d="M17.5207 0.720215C8.26166 0.720215 0.720703 8.26117 0.720703 17.5202V54.4802C0.720703 63.7393 8.26166 71.2802 17.5207 71.2802H54.4807C63.7397 71.2802 71.2807 63.7393 71.2807 54.4802V17.5202C71.2807 8.26117 63.7397 0.720215 54.4807 0.720215H17.5207ZM15.8407 20.8802H56.1607C56.4631 20.8802 56.7483 20.9143 57.0171 20.9983L40.5026 37.4965C38.0162 39.9829 33.9688 39.9829 31.4824 37.4965L14.9843 20.9983C15.2531 20.9143 15.5383 20.8802 15.8407 20.8802ZM12.5988 23.3838L25.2316 36.0002L12.5988 48.6166C12.5148 48.3478 12.4807 48.0626 12.4807 47.7602V24.2402C12.4807 23.9378 12.5148 23.6526 12.5988 23.3838ZM59.4026 23.3838C59.4866 23.6526 59.5207 23.9378 59.5207 24.2402V47.7602C59.5207 48.0626 59.4866 48.3478 59.4026 48.6166L46.7534 36.0002L59.4026 23.3838ZM27.6007 38.3693L29.097 39.8819C30.9954 41.7803 33.4979 42.7202 35.9843 42.7202C38.4875 42.7202 40.9732 41.7803 42.8716 39.8819L44.3843 38.3693L57.0171 51.0021C56.7483 51.0861 56.4631 51.1202 56.1607 51.1202H15.8407C15.5383 51.1202 15.2531 51.0861 14.9843 51.0021L27.6007 38.3693Z" fill="white"/>
</svg>
