<svg width="70" height="70" viewBox="0 0 70 70" fill="none" xmlns="http://www.w3.org/2000/svg">
<g clip-path="url(#clip0_410_21)">
<path d="M55.4167 0H14.5833C6.53042 0 0 6.53042 0 14.5833V55.4167C0 63.4696 6.53042 70 14.5833 70H55.4167C63.4725 70 70 63.4696 70 55.4167V14.5833C70 6.53042 63.4725 0 55.4167 0ZM23.3333 55.4167H14.5833V23.3333H23.3333V55.4167ZM18.9583 19.635C16.1408 19.635 13.8542 17.3308 13.8542 14.49C13.8542 11.6492 16.1408 9.345 18.9583 9.345C21.7758 9.345 24.0625 11.6492 24.0625 14.49C24.0625 17.3308 21.7788 19.635 18.9583 19.635ZM58.3333 55.4167H49.5833V39.0717C49.5833 29.2483 37.9167 29.9921 37.9167 39.0717V55.4167H29.1667V23.3333H37.9167V28.4813C41.9883 20.9388 58.3333 20.3817 58.3333 35.7029V55.4167Z" fill="white"/>
</g>
<defs>
<clipPath id="clip0_410_21">
<rect width="70" height="70" fill="white"/>
</clipPath>
</defs>
</svg>
